HIERARCHY
ROOT joint_0
{
	OFFSET 0.000000 0.000000 0.000000
	CHANNELS 6 Xposition Yposition Zposition Zrotation Yrotation Xrotation 
	JOINT joint_1
	{
		OFFSET 7.566162 2.250183 114.799927
		CHANNELS 3 Zrotation Yrotation Xrotation
		JOINT joint_2
		{
			OFFSET -5.201660 -0.414001 104.936035
			CHANNELS 3 Zrotation Yrotation Xrotation
			JOINT joint_3
			{
				OFFSET -6.923584 -0.419739 104.718018
				CHANNELS 3 Zrotation Yrotation Xrotation
				JOINT joint_4
				{
					OFFSET 3.108887 2.881104 149.449951
					CHANNELS 3 Zrotation Yrotation Xrotation
					JOINT joint_5
					{
						OFFSET 19.988770 5.920349 90.786987
						CHANNELS 3 Zrotation Yrotation Xrotation
						End Site
						{
							OFFSET 0.000000 0.000000 0.000000
						}
					}
				}
				JOINT joint_6
				{
					OFFSET 9.283936 -30.015930 84.410034
					CHANNELS 3 Zrotation Yrotation Xrotation
					JOINT joint_7
					{
						OFFSET 47.243164 -155.716736 -23.241089
						CHANNELS 3 Zrotation Yrotation Xrotation
						JOINT joint_8
						{
							OFFSET 31.323730 -15.356873 -268.798950
							CHANNELS 3 Zrotation Yrotation Xrotation
							JOINT joint_9
							{
								OFFSET 28.122314 -2.114624 -262.450012
								CHANNELS 3 Zrotation Yrotation Xrotation
								End Site
								{
									OFFSET 0.000000 0.000000 0.000000
								}
							}
						}
					}
				}
				JOINT joint_10
				{
					OFFSET -5.580566 33.311218 83.498047
					CHANNELS 3 Zrotation Yrotation Xrotation
					JOINT joint_11
					{
						OFFSET -22.773438 160.515381 -27.138062
						CHANNELS 3 Zrotation Yrotation Xrotation
						JOINT joint_12
						{
							OFFSET 27.004395 30.848877 -267.937988
							CHANNELS 3 Zrotation Yrotation Xrotation
							JOINT joint_13
							{
								OFFSET 32.625000 14.824585 -261.518005
								CHANNELS 3 Zrotation Yrotation Xrotation
								End Site
								{
									OFFSET 0.000000 0.000000 0.000000
								}
							}
						}
					}
				}
			}
		}
	}
	JOINT joint_14
	{
		OFFSET 20.623535 -83.447632 -106.174011
		CHANNELS 3 Zrotation Yrotation Xrotation
		JOINT joint_15
		{
			OFFSET 0.661865 -23.563843 -459.915039
			CHANNELS 3 Zrotation Yrotation Xrotation
			JOINT joint_16
			{
				OFFSET -23.461670 -28.727966 -444.760971
				CHANNELS 3 Zrotation Yrotation Xrotation
				JOINT joint_17
				{
					OFFSET 178.992920 54.047363 -80.113001
					CHANNELS 3 Zrotation Yrotation Xrotation
					End Site
					{
						OFFSET 0.000000 0.000000 0.000000
					}
				}
			}
		}
	}
	JOINT joint_18
	{
		OFFSET -19.571533 84.686279 -105.380005
		CHANNELS 3 Zrotation Yrotation Xrotation
		JOINT joint_19
		{
			OFFSET -22.949951 3.639404 -459.933044
			CHANNELS 3 Zrotation Yrotation Xrotation
			JOINT joint_20
			{
				OFFSET -33.690674 4.092651 -445.010971
				CHANNELS 3 Zrotation Yrotation Xrotation
				JOINT joint_21
				{
					OFFSET 187.419678 18.953857 -76.759001
					CHANNELS 3 Zrotation Yrotation Xrotation
					End Site
					{
						OFFSET 0.000000 0.000000 0.000000
					}
				}
			}
		}
	}
}
MOTION
Frames: 7
Frame Time: 0.016667
-3272.859863 946.868225 1112.661011 -10.268871 0.127780 0.179506 0.573467 0.730471 1.375083 0.478670 0.092423 -0.345914 0.515981 -0.034400 0.225822 -0.015383 0.266445 -0.008793 0.000000 0.000000 0.000000 1.000060 0.148945 -0.957420 0.026054 0.744965 0.530085 0.189035 0.142990 1.689230 0.000000 0.000000 0.000000 -0.059228 0.690950 -0.746506 -0.201962 0.417063 -2.505882 0.015524 0.159225 0.041603 0.000000 0.000000 0.000000 0.414475 2.940814 -1.419899 0.599952 -1.683496 -0.007758 0.667694 -4.267240 1.586278 0.000000 0.000000 0.000000 1.701988 0.535890 -0.672541 1.642237 1.607555 0.649403 1.540608 -4.746044 1.109581 0.000000 0.000000 0.000000 
-3266.632568 947.695007 1112.189941 -10.216681 0.703467 0.108649 0.562158 -0.853056 1.681408 0.466801 0.207331 -0.361137 0.508086 -0.274331 0.281213 -0.030344 0.897345 -0.121981 0.000000 0.000000 0.000000 0.704945 0.733351 -1.038672 -0.006174 1.279355 0.415721 0.186792 0.258020 1.681629 0.000000 0.000000 0.000000 0.154811 1.268454 -0.913317 -0.161031 0.966153 -2.672042 -0.002114 0.150507 -0.096584 0.000000 0.000000 0.000000 0.410530 2.795111 -1.490677 0.599063 -1.930305 0.047276 0.653936 -4.345808 1.603779 0.000000 0.000000 0.000000 1.705091 0.489692 -0.773689 1.630071 1.158597 0.762142 1.543463 -4.834284 1.119495 0.000000 0.000000 0.000000 
-3259.746826 948.456787 1111.456055 -10.243125 1.350879 -0.006187 0.585602 -2.637744 2.044120 0.479273 0.366586 -0.374600 0.525084 -0.591738 0.345256 -0.041261 1.537563 -0.249252 0.000000 0.000000 0.000000 0.382607 1.387051 -1.167141 -0.052573 1.874155 0.233452 0.209828 0.320288 1.881530 0.000000 0.000000 0.000000 0.464696 1.878035 -1.034510 -0.121894 1.523480 -2.845993 -0.019121 0.175217 -0.247857 0.000000 0.000000 0.000000 0.462994 2.409756 -1.442471 0.631022 -1.807580 -0.014630 0.697506 -4.482833 1.664298 0.000000 0.000000 0.000000 1.694062 0.209135 -0.801682 1.617829 1.084363 0.800629 1.533779 -4.968579 1.128876 0.000000 0.000000 0.000000 
-3252.358887 949.017151 1110.277954 -10.379402 2.090795 -0.183922 0.660993 -4.699039 2.466712 0.525565 0.609589 -0.376707 0.575968 -1.041854 0.420798 -0.045194 2.157605 -0.396944 0.000000 0.000000 0.000000 0.033146 2.141296 -1.355266 -0.121985 2.548433 -0.072302 0.279720 0.320708 2.459357 0.000000 0.000000 0.000000 0.912902 2.520983 -1.058818 -0.087765 2.073439 -3.038743 -0.035587 0.259417 -0.426221 0.000000 0.000000 0.000000 0.611412 1.616402 -1.193331 0.717339 -1.054915 -0.273460 0.834550 -4.689577 1.787161 0.000000 0.000000 0.000000 1.649849 -0.468507 -0.712000 1.595741 1.639842 0.709913 1.493911 -5.190810 1.134720 0.000000 0.000000 0.000000 
-3244.311279 949.512695 1108.838013 -10.599545 2.868284 -0.397224 0.778031 -6.881835 2.919033 0.590342 0.846772 -0.359046 0.644897 -1.560822 0.503384 -0.045765 2.748859 -0.546540 0.000000 0.000000 0.000000 -0.351905 2.952813 -1.618670 -0.205294 3.285469 -0.420171 0.378283 0.276024 3.243187 0.000000 0.000000 0.000000 1.459796 3.200594 -0.983513 -0.056063 2.621964 -3.274943 -0.050925 0.381347 -0.614186 0.000000 0.000000 0.000000 0.816424 0.623775 -0.843687 0.834476 0.058052 -0.638908 1.019029 -4.922450 1.938808 0.000000 0.000000 0.000000 1.594063 -1.337934 -0.558578 1.574029 2.557112 0.539537 1.439699 -5.434856 1.136793 0.000000 0.000000 0.000000 
-3236.091309 950.103577 1107.543945 -10.752745 3.387462 -0.537590 0.876799 -8.575445 3.281909 0.629964 0.969514 -0.337501 0.688093 -1.960315 0.577068 -0.045532 3.178443 -0.654366 0.000000 0.000000 0.000000 -0.695722 3.635583 -1.879814 -0.286016 3.913212 -0.718526 0.468149 0.138209 3.921357 0.000000 0.000000 0.000000 1.953475 3.765496 -0.912004 -0.023516 3.071773 -3.458244 -0.059363 0.486763 -0.735060 0.000000 0.000000 0.000000 0.959114 -0.059305 -0.590305 0.897921 1.159174 -0.998876 1.146625 -5.209996 2.081724 0.000000 0.000000 0.000000 1.529311 -1.974207 -0.459391 1.538179 3.568504 0.367040 1.365894 -5.629598 1.125835 0.000000 0.000000 0.000000 
-3227.788574 950.883301 1106.551025 -10.764177 3.616289 -0.576593 0.928972 -9.672292 3.554637 0.630989 0.991187 -0.338661 0.693574 -2.187359 0.642104 -0.048167 3.444467 -0.706933 0.000000 0.000000 0.000000 -0.983411 4.155041 -2.091773 -0.365386 4.381148 -0.983377 0.538880 -0.208608 4.411399 0.000000 0.000000 0.000000 2.372688 4.146829 -0.937907 0.010939 3.380905 -3.519064 -0.053330 0.566497 -0.722108 0.000000 0.000000 0.000000 0.986786 -0.338234 -0.474323 0.865796 2.139891 -1.350804 1.171586 -5.585469 2.205806 0.000000 0.000000 0.000000 1.440130 -2.364946 -0.441985 1.469999 4.682052 0.229094 1.256783 -5.712808 1.089235 0.000000 0.000000 0.000000 
